{"title":"Devoured.2012.BluRay.720p.Cinemania.cc.mkv","uid":8959393,"size":4818175218,"categoryP":"video","categoryS":"hd___movies","magnet":"?xt=urn:btih:920acb29314260d4132a65895f8b072d70b31050&amp;dn=Devoured.2012.BluRay.720p.Cinemania.cc.mkv&amp;tr=udp%3A%2F%2Ftracker.openbittorrent.com%3A80&amp;tr=udp%3A%2F%2Fopen.demonii.com%3A1337&amp;tr=udp%3A%2F%2Ftracker.coppersurfer.tk%3A6969&amp;tr=udp%3A%2F%2Fexodus.desync.com%3A6969","seeders":0,"leechers":1,"uploader":"ABSTAIN","files":1,"time":1380066496,"description":"[img]http://cinemania.cc/torrents/images/7100.jpg[/img]\n &lt;a href=&quot;\nhttp://www.imdb.com/title/tt2010976/&quot; rel=&quot;nofollow&quot; target=&quot;_NEW&quot;&gt;\nhttp://www.imdb.com/title/tt2010976/&lt;/a&gt;\n\n\nGeneral \nDevoured.2012.BluRay.720p.Cinemania.cc.mkv \nFormat : Matroska \nFormat version : Version 4 / Version 2 \nFile size : 4.49 GiB \nDuration : 1h 29mn \nOverall bit rate : 7 167 Kbps \nMovie name : CINEMANIA.CC \nEncoded date : UTC 2013-09-24 20:23:29 \nWriting application : mkvmerge v6.4.1 ('Omega Point') built on Sep 16 2013 22:05:10 \nWriting library : libebml v1.3.0 + libmatroska v1.4.1 \n\nVideo \nID : 1 \nFormat : AVC \nFormat/Info : Advanced Video Codec \nFormat profile : &lt;a class=&quot;__cf_email__&quot; href=&quot;/cdn-cgi/l/email-protection&quot; data-cfemail=&quot;c189a8a6a9818df5eff0&quot;&gt;[email&amp;#160;protected]&lt;/a&gt;&lt;script cf-hash='f9e31' type=&quot;text/javascript&quot;&gt;\n/* &lt;![CDATA[ */!function(){try{var t=&quot;currentScript&quot;in document?document.currentScript:function(){for(var t=document.getElementsByTagName(&quot;script&quot;),e=t.length;e--;)if(t[e].getAttribute(&quot;cf-hash&quot;))return t[e]}();if(t&amp;&amp;t.previousSibling){var e,r,n,i,c=t.previousSibling,a=c.getAttribute(&quot;data-cfemail&quot;);if(a){for(e=&quot;&quot;,r=parseInt(a.substr(0,2),16),n=2;a.length-n;n+=2)i=parseInt(a.substr(n,2),16)^r,e+=String.fromCharCode(i);e=document.createTextNode(e),c.parentNode.replaceChild(e,c)}}}catch(u){}}();/* ]]&gt; */&lt;/script&gt; \nFormat settings, CABAC : Yes \nFormat settings, ReFrames : 5 frames \nCodec ID : V_MPEG4/ISO/AVC \nDuration : 1h 29mn \nBit rate : 5 465 Kbps \nWidth : 1 280 pixels \nHeight : 720 pixels \nDisplay aspect ratio : 16:9 \nFrame rate mode : Constant \nFrame rate : 23.976 fps \nColor space : YUV \nChroma subsampling : 4:2:0 \nBit depth : 8 bits \nScan type : Progressive \nBits/(Pixel*Frame) : 0.247 \nStream size : 3.33 GiB (74%) \nTitle : CINEMANIA.CC \nWriting library : x264 core 135 r2345 f0c1c53 \nEncoding settings : cabac=1 // deblock=1:0:0 / analyse=0x3:0x133 / me=umh / subme=7 / psy=1 / psy_rd=1.00:0.00 // me_range=16 / chroma_me=1 / trellis=1 / 8x8dct=1 / cqm=0 / deadzone=21,11 / fast_pskip=0 / chroma_qp_offset=-2 / threads=12 / lookahead_threads=2 / sliced_threads=0 / nr=0 / decimate=1 / interlaced=0 / bluray_compat=0 / constrained_intra=0 / bframes=3 / b_pyramid=2 / b_adapt=2 / b_bias=0 / direct=3 / weightb=1 / open_gop=0 / weightp=2 / keyint=250 / keyint_min=23 / scenecut=40 / intra_refresh=0 / rc_lookahead=50 / rc=2pass / mbtree=1 / bitrate=5465 / ratetol=1.0 / qcomp=0.60 / qpmin=0 / qpmax=69 / qpstep=4 / cplxblur=20.0 / qblur=0.5 / ip_ratio=1.40 / aq=1:1.00 \nLanguage : English \nDefault : Yes \nForced : No \n\nAudio #1 \nID : 2 \nFormat : AC-3 \nFormat/Info : Audio Coding 3 \nMode extension : CM (complete main) \nFormat settings, Endianness : Big \nCodec ID : A_AC3 \nDuration : 1h 29mn \nBit rate mode : Constant \nBit rate : 192 Kbps \nChannel(s) : 2 channels \nChannel positions : Front: L R \nSampling rate : 48.0 KHz \nBit depth : 16 bits \nCompression mode : Lossy \nStream size : 123 MiB (3%) \nTitle : DeadSno &amp; den904 \nLanguage : Russian \nDefault : Yes \nForced : Yes \n\nAudio #2 \nID : 3 \nFormat : DTS \nFormat/Info : Digital Theater Systems \nMode : 16 \nFormat settings, Endianness : Big \nCodec ID : A_DTS \nDuration : 1h 29mn \nBit rate mode : Constant \nBit rate : 1 509 Kbps \nChannel(s) : 6 channels \nChannel positions : Front: L C R, Side: L R, LFE \nSampling rate : 48.0 KHz \nBit depth : 24 bits \nCompression mode : Lossy \nStream size : 967 MiB (21%) \nLanguage : English \nDefault : No \nForced : No \n\nText \nID : 4 \nFormat : UTF-8 \nCodec ID : S_TEXT/UTF8 \nCodec ID/Info : UTF-8 Plain Text \nLanguage : English \nDefault : No \nForced : No \n\nMenu \n00:00:00.000 : en:00:00:00.000 \n00:05:29.246 : en:00:05:29.246 \n00:11:28.062 : en:00:11:28.062 \n00:17:24.210 : en:00:17:24.210 \n00:22:32.142 : en:00:22:32.142 \n00:26:27.211 : en:00:26:27.211 \n00:32:01.878 : en:00:32:01.878 \n00:38:46.366 : en:00:38:46.366 \n00:45:05.745 : en:00:45:05.745 \n00:50:48.337 : en:00:50:48.337 \n00:55:29.743 : en:00:55:29.743 \n01:01:11.918 : en:01:01:11.918 \n01:06:47.212 : en:01:06:47.212 \n01:11:37.668 : en:01:11:37.668 \n01:16:39.553 : en:01:16:39.553 \n01:25:25.203 : en:01:25:25.203 ","torrent":{"xt":"urn:btih:920acb29314260d4132a65895f8b072d70b31050","amp;dn":"Devoured.2012.BluRay.720p.Cinemania.cc.mkv","amp;tr":["udp%3A%2F%2Ftracker.openbittorrent.com%3A80","udp%3A%2F%2Fopen.demonii.com%3A1337","udp%3A%2F%2Ftracker.coppersurfer.tk%3A6969","udp%3A%2F%2Fexodus.desync.com%3A6969"],"infoHash":"920acb29314260d4132a65895f8b072d70b31050","infoHashBuffer":{"type":"Buffer","data":[146,10,203,41,49,66,96,212,19,42,101,137,95,139,7,45,112,179,16,80]},"announce":[],"urlList":[]}}